<svg width="151" height="61" viewBox="0 0 151 61" fill="none" xmlns="http://www.w3.org/2000/svg">
<path d="M74.54 10.88C74.3533 10.88 74.26 10.9667 74.26 11.14V16.48C74.26 16.8267 74.06 17 73.66 17H70.7C70.5133 17 70.3867 16.9667 70.32 16.9C70.2533 16.82 70.22 16.7 70.22 16.54V2.58C70.22 2.3 70.3333 2.16 70.56 2.16H73.92C74.1467 2.16 74.26 2.28667 74.26 2.54V7.42C74.26 7.67333 74.3667 7.8 74.58 7.8H78.56C78.7733 7.8 78.88 7.67333 78.88 7.42V2.54C78.88 2.28667 78.9933 2.16 79.22 2.16H82.58C82.8067 2.16 82.92 2.3 82.92 2.58V16.54C82.92 16.7 82.8867 16.82 82.82 16.9C82.7533 16.9667 82.6267 17 82.44 17H79.48C79.08 17 78.88 16.8267 78.88 16.48V11.14C78.88 10.9667 78.7867 10.88 78.6 10.88H74.54ZM91.9167 17.2C90.4901 17.2 89.2434 16.8933 88.1767 16.28C87.1234 15.6667 86.3101 14.7933 85.7367 13.66C85.1634 12.5133 84.8767 11.1667 84.8767 9.62C84.8767 8.06 85.1701 6.70667 85.7567 5.56C86.3434 4.41333 87.1634 3.52667 88.2167 2.9C89.2701 2.27333 90.5034 1.96 91.9167 1.96C93.3434 1.96 94.5767 2.27333 95.6167 2.9C96.6701 3.52667 97.4834 4.41333 98.0567 5.56C98.6434 6.70667 98.9367 8.06 98.9367 9.62C98.9367 11.1667 98.6501 12.5067 98.0767 13.64C97.5034 14.7733 96.6901 15.6533 95.6367 16.28C94.5834 16.8933 93.3434 17.2 91.9167 17.2ZM91.9367 14.4C92.9101 14.4 93.6101 14.0333 94.0367 13.3C94.4767 12.5667 94.6967 11.36 94.6967 9.68C94.6967 7.93333 94.4767 6.67333 94.0367 5.9C93.5967 5.12667 92.8901 4.74 91.9167 4.74C90.9434 4.74 90.2301 5.12667 89.7767 5.9C89.3367 6.67333 89.1167 7.93333 89.1167 9.68C89.1167 11.36 89.3367 12.5667 89.7767 13.3C90.2167 14.0333 90.9367 14.4 91.9367 14.4ZM109.193 5.9C108.926 5.60667 108.593 5.34 108.193 5.1C107.806 4.86 107.213 4.74 106.413 4.74C105.626 4.74 105.053 4.87333 104.693 5.14C104.333 5.39333 104.153 5.69333 104.153 6.04C104.153 6.18667 104.193 6.34 104.273 6.5C104.353 6.64667 104.493 6.79333 104.693 6.94C104.906 7.08667 105.206 7.20667 105.593 7.3L108.833 8.18C110.086 8.51333 111 9.06 111.573 9.82C112.146 10.58 112.433 11.46 112.433 12.46C112.433 13.42 112.18 14.26 111.673 14.98C111.18 15.6867 110.473 16.2333 109.553 16.62C108.633 17.0067 107.533 17.2 106.253 17.2C105.306 17.2 104.413 17.0933 103.573 16.88C102.746 16.6667 102.013 16.3667 101.373 15.98C100.746 15.58 100.273 15.1133 99.953 14.58C99.873 14.4467 99.8396 14.34 99.853 14.26C99.8663 14.1667 99.9396 14.0667 100.073 13.96L101.873 12.72C102.046 12.6 102.186 12.5533 102.293 12.58C102.413 12.5933 102.506 12.6467 102.573 12.74C102.88 13.14 103.186 13.4667 103.493 13.72C103.8 13.96 104.146 14.14 104.533 14.26C104.933 14.3667 105.406 14.42 105.953 14.42C106.753 14.42 107.393 14.3067 107.873 14.08C108.353 13.84 108.593 13.4867 108.593 13.02C108.593 12.8333 108.54 12.66 108.433 12.5C108.34 12.3267 108.186 12.1733 107.973 12.04C107.773 11.9067 107.493 11.7933 107.133 11.7L104.093 10.9C103.306 10.6867 102.633 10.3667 102.073 9.94C101.513 9.51333 101.08 9.01333 100.773 8.44C100.48 7.86667 100.333 7.24667 100.333 6.58C100.333 5.72667 100.573 4.95333 101.053 4.26C101.546 3.55333 102.24 2.99333 103.133 2.58C104.026 2.16667 105.08 1.96 106.293 1.96C107.066 1.96 107.8 2.04667 108.493 2.22C109.2 2.39333 109.826 2.64 110.373 2.96C110.933 3.28 111.373 3.65333 111.693 4.08C111.746 4.17333 111.786 4.26667 111.813 4.36C111.853 4.45333 111.813 4.54667 111.693 4.64L109.733 6.06C109.653 6.12667 109.573 6.15333 109.493 6.14C109.426 6.11333 109.326 6.03333 109.193 5.9ZM126.902 6.88C126.902 7.85333 126.668 8.68667 126.202 9.38C125.748 10.0733 125.115 10.6067 124.302 10.98C123.488 11.34 122.535 11.52 121.442 11.52H118.582C118.435 11.52 118.362 11.5867 118.362 11.72V16.48C118.362 16.8267 118.162 17 117.762 17H114.782C114.608 17 114.488 16.9667 114.422 16.9C114.355 16.82 114.322 16.7 114.322 16.54V2.58C114.322 2.3 114.435 2.16 114.662 2.16H120.982C122.075 2.16 123.068 2.33333 123.962 2.68C124.855 3.01333 125.568 3.53333 126.102 4.24C126.635 4.93333 126.902 5.81333 126.902 6.88ZM122.782 6.82C122.782 6.43333 122.688 6.10667 122.502 5.84C122.328 5.57333 122.088 5.37333 121.782 5.24C121.475 5.09333 121.128 5.02 120.742 5.02H118.782C118.502 5.02 118.362 5.15333 118.362 5.42V8.24C118.362 8.50667 118.462 8.64 118.662 8.64H120.862C121.448 8.64 121.915 8.47333 122.262 8.14C122.608 7.80667 122.782 7.36667 122.782 6.82ZM126.17 17C126.036 17 125.936 16.94 125.87 16.82C125.816 16.6867 125.823 16.5267 125.89 16.34L130.81 2.58C130.863 2.43333 130.93 2.32667 131.01 2.26C131.09 2.19333 131.21 2.16 131.37 2.16H134.85C135.183 2.16 135.41 2.32667 135.53 2.66L140.39 16.38C140.43 16.5 140.43 16.6333 140.39 16.78C140.35 16.9267 140.256 17 140.11 17H136.67C136.456 17 136.316 16.8933 136.25 16.68L135.37 14.08C135.343 14.0267 135.31 13.98 135.27 13.94C135.243 13.8867 135.176 13.86 135.07 13.86H130.53C130.383 13.86 130.29 13.9333 130.25 14.08L129.31 16.72C129.283 16.8 129.236 16.8667 129.17 16.92C129.103 16.9733 129.003 17 128.87 17H126.17ZM134.17 10.82C134.356 10.82 134.416 10.6933 134.35 10.44L132.91 6.42C132.883 6.35333 132.843 6.32 132.79 6.32C132.736 6.32 132.696 6.35333 132.67 6.42L131.21 10.44C131.116 10.6933 131.176 10.82 131.39 10.82H134.17Z" fill="#020D2B"/>
<path d="M71.088 37C70.944 37 70.872 36.922 70.872 36.766V23.86C70.872 23.716 70.938 23.644 71.07 23.644H72.276C72.36 23.644 72.42 23.656 72.456 23.68C72.504 23.704 72.54 23.752 72.564 23.824L76.884 34.84C76.932 34.96 76.98 35.02 77.028 35.02C77.076 35.008 77.124 34.948 77.172 34.84L81.528 23.842C81.576 23.71 81.654 23.644 81.762 23.644H83.058C83.178 23.644 83.238 23.716 83.238 23.86V36.766C83.238 36.922 83.16 37 83.004 37H82.104C82.032 37 81.978 36.988 81.942 36.964C81.906 36.928 81.888 36.868 81.888 36.784V26.164C81.888 26.104 81.876 26.08 81.852 26.092C81.828 26.104 81.81 26.128 81.798 26.164L77.622 36.784C77.574 36.928 77.472 37 77.316 37H76.596C76.416 37 76.296 36.934 76.236 36.802L72.15 26.272C72.126 26.224 72.102 26.2 72.078 26.2C72.066 26.2 72.06 26.224 72.06 26.272V36.802C72.06 36.862 72.042 36.91 72.006 36.946C71.982 36.982 71.928 37 71.844 37H71.088ZM86.9736 23.86C86.9736 23.716 87.0396 23.644 87.1716 23.644H95.0016C95.1096 23.644 95.1636 23.698 95.1636 23.806L95.1456 24.544C95.1456 24.664 95.0856 24.724 94.9656 24.724H88.5396C88.3956 24.724 88.3236 24.79 88.3236 24.922V29.548C88.3236 29.668 88.3896 29.728 88.5216 29.728H93.3996C93.5076 29.728 93.5616 29.782 93.5616 29.89V30.646C93.5616 30.694 93.5496 30.73 93.5256 30.754C93.5136 30.778 93.4716 30.79 93.3996 30.79H88.5036C88.3836 30.79 88.3236 30.85 88.3236 30.97V35.74C88.3236 35.86 88.3836 35.92 88.5036 35.92H95.2176C95.3496 35.92 95.4156 35.974 95.4156 36.082V36.838C95.4156 36.886 95.3976 36.928 95.3616 36.964C95.3376 36.988 95.2956 37 95.2356 37H87.1896C87.0456 37 86.9736 36.928 86.9736 36.784V23.86ZM98.4048 23.644C98.4648 23.644 98.6088 23.644 98.8368 23.644C99.0768 23.644 99.3408 23.65 99.6288 23.662C99.9168 23.662 100.181 23.662 100.421 23.662C100.661 23.662 100.823 23.662 100.907 23.662C102.575 23.674 103.919 23.932 104.939 24.436C105.971 24.928 106.721 25.654 107.189 26.614C107.669 27.574 107.909 28.768 107.909 30.196C107.909 31.732 107.645 33.004 107.117 34.012C106.601 35.02 105.809 35.77 104.741 36.262C103.685 36.754 102.335 37 100.691 37H98.3868C98.2428 37 98.1708 36.922 98.1708 36.766V23.86C98.1708 23.788 98.1888 23.734 98.2248 23.698C98.2608 23.662 98.3208 23.644 98.4048 23.644ZM99.7008 24.724C99.5808 24.724 99.5208 24.808 99.5208 24.976V35.758C99.5208 35.878 99.5928 35.938 99.7368 35.938H100.511C101.927 35.938 103.073 35.758 103.949 35.398C104.825 35.026 105.467 34.426 105.875 33.598C106.283 32.77 106.487 31.678 106.487 30.322C106.487 28.858 106.271 27.724 105.839 26.92C105.419 26.116 104.771 25.552 103.895 25.228C103.031 24.892 101.927 24.724 100.583 24.724H99.7008ZM112.19 23.644C112.31 23.644 112.37 23.716 112.37 23.86V36.73C112.37 36.838 112.352 36.91 112.316 36.946C112.28 36.982 112.208 37 112.1 37H111.272C111.164 37 111.092 36.988 111.056 36.964C111.032 36.928 111.02 36.868 111.02 36.784V23.86C111.02 23.716 111.086 23.644 111.218 23.644H112.19ZM121.032 23.464C121.608 23.464 122.166 23.56 122.706 23.752C123.258 23.944 123.75 24.208 124.182 24.544C124.626 24.88 124.986 25.27 125.262 25.714C125.55 26.146 125.724 26.608 125.784 27.1C125.796 27.172 125.796 27.226 125.784 27.262C125.772 27.286 125.73 27.298 125.658 27.298L124.614 27.388C124.566 27.4 124.53 27.394 124.506 27.37C124.482 27.334 124.464 27.286 124.452 27.226C124.26 26.434 123.864 25.792 123.264 25.3C122.664 24.796 121.932 24.544 121.068 24.544C119.736 24.544 118.71 25.036 117.99 26.02C117.282 26.992 116.928 28.438 116.928 30.358C116.928 32.218 117.282 33.634 117.99 34.606C118.698 35.578 119.766 36.064 121.194 36.064C122.07 36.064 122.802 35.854 123.39 35.434C123.978 35.002 124.452 34.324 124.812 33.4C124.836 33.352 124.89 33.334 124.974 33.346L125.856 33.58C125.88 33.592 125.898 33.61 125.91 33.634C125.934 33.658 125.94 33.706 125.928 33.778C125.82 34.138 125.664 34.486 125.46 34.822C125.256 35.158 125.01 35.47 124.722 35.758C124.434 36.046 124.104 36.298 123.732 36.514C123.36 36.73 122.952 36.892 122.508 37C122.076 37.12 121.608 37.18 121.104 37.18C119.94 37.18 118.938 36.91 118.098 36.37C117.258 35.818 116.616 35.032 116.172 34.012C115.728 32.992 115.506 31.768 115.506 30.34C115.506 28.9 115.728 27.67 116.172 26.65C116.616 25.618 117.246 24.832 118.062 24.292C118.89 23.74 119.88 23.464 121.032 23.464ZM127.524 37C127.464 37 127.416 36.976 127.38 36.928C127.356 36.88 127.356 36.82 127.38 36.748L132.078 23.878C132.114 23.794 132.156 23.734 132.204 23.698C132.252 23.662 132.318 23.644 132.402 23.644H133.482C133.686 23.644 133.812 23.722 133.86 23.878L138.504 36.748C138.54 36.808 138.54 36.868 138.504 36.928C138.468 36.976 138.414 37 138.342 37H137.424C137.28 37 137.19 36.946 137.154 36.838L135.822 33.13C135.81 33.082 135.792 33.046 135.768 33.022C135.744 32.998 135.696 32.986 135.624 32.986H130.152C130.056 32.986 129.99 33.034 129.954 33.13L128.586 36.856C128.574 36.904 128.55 36.94 128.514 36.964C128.478 36.988 128.424 37 128.352 37H127.524ZM135.228 31.888C135.36 31.888 135.402 31.822 135.354 31.69L133.032 25.3C132.984 25.192 132.936 25.138 132.888 25.138C132.852 25.138 132.81 25.198 132.762 25.318L130.404 31.708C130.356 31.828 130.386 31.888 130.494 31.888H135.228ZM141.255 23.86C141.255 23.716 141.321 23.644 141.453 23.644H142.425C142.545 23.644 142.605 23.716 142.605 23.86V35.74C142.605 35.86 142.665 35.92 142.785 35.92H149.139C149.259 35.92 149.319 35.974 149.319 36.082V36.838C149.319 36.886 149.307 36.928 149.283 36.964C149.259 36.988 149.211 37 149.139 37H141.471C141.387 37 141.327 36.982 141.291 36.946C141.267 36.91 141.255 36.856 141.255 36.784V23.86ZM75.786 43.464C76.362 43.464 76.92 43.56 77.46 43.752C78.012 43.944 78.504 44.208 78.936 44.544C79.38 44.88 79.74 45.27 80.016 45.714C80.304 46.146 80.478 46.608 80.538 47.1C80.55 47.172 80.55 47.226 80.538 47.262C80.526 47.286 80.484 47.298 80.412 47.298L79.368 47.388C79.32 47.4 79.284 47.394 79.26 47.37C79.236 47.334 79.218 47.286 79.206 47.226C79.014 46.434 78.618 45.792 78.018 45.3C77.418 44.796 76.686 44.544 75.822 44.544C74.49 44.544 73.464 45.036 72.744 46.02C72.036 46.992 71.682 48.438 71.682 50.358C71.682 52.218 72.036 53.634 72.744 54.606C73.452 55.578 74.52 56.064 75.948 56.064C76.824 56.064 77.556 55.854 78.144 55.434C78.732 55.002 79.206 54.324 79.566 53.4C79.59 53.352 79.644 53.334 79.728 53.346L80.61 53.58C80.634 53.592 80.652 53.61 80.664 53.634C80.688 53.658 80.694 53.706 80.682 53.778C80.574 54.138 80.418 54.486 80.214 54.822C80.01 55.158 79.764 55.47 79.476 55.758C79.188 56.046 78.858 56.298 78.486 56.514C78.114 56.73 77.706 56.892 77.262 57C76.83 57.12 76.362 57.18 75.858 57.18C74.694 57.18 73.692 56.91 72.852 56.37C72.012 55.818 71.37 55.032 70.926 54.012C70.482 52.992 70.26 51.768 70.26 50.34C70.26 48.9 70.482 47.67 70.926 46.65C71.37 45.618 72 44.832 72.816 44.292C73.644 43.74 74.634 43.464 75.786 43.464ZM83.5107 43.86C83.5107 43.716 83.5767 43.644 83.7087 43.644H91.5387C91.6467 43.644 91.7007 43.698 91.7007 43.806L91.6827 44.544C91.6827 44.664 91.6227 44.724 91.5027 44.724H85.0767C84.9327 44.724 84.8607 44.79 84.8607 44.922V49.548C84.8607 49.668 84.9267 49.728 85.0587 49.728H89.9367C90.0447 49.728 90.0987 49.782 90.0987 49.89V50.646C90.0987 50.694 90.0867 50.73 90.0627 50.754C90.0507 50.778 90.0087 50.79 89.9367 50.79H85.0407C84.9207 50.79 84.8607 50.85 84.8607 50.97V55.74C84.8607 55.86 84.9207 55.92 85.0407 55.92H91.7547C91.8867 55.92 91.9527 55.974 91.9527 56.082V56.838C91.9527 56.886 91.9347 56.928 91.8987 56.964C91.8747 56.988 91.8327 57 91.7727 57H83.7267C83.5827 57 83.5107 56.928 83.5107 56.784V43.86ZM104.392 43.644C104.512 43.644 104.572 43.71 104.572 43.842V56.802C104.572 56.862 104.554 56.91 104.518 56.946C104.494 56.982 104.446 57 104.374 57H103.744C103.672 57 103.606 56.994 103.546 56.982C103.486 56.97 103.432 56.934 103.384 56.874L96.1299 46.254C96.0699 46.17 96.0159 46.134 95.9679 46.146C95.9319 46.158 95.9139 46.2 95.9139 46.272V56.802C95.9139 56.934 95.8419 57 95.6979 57H94.9239C94.7799 57 94.7079 56.928 94.7079 56.784V43.86C94.7079 43.716 94.7739 43.644 94.9059 43.644H95.6619C95.7459 43.644 95.8059 43.656 95.8419 43.68C95.8899 43.692 95.9379 43.734 95.9859 43.806L103.114 54.282C103.186 54.366 103.246 54.396 103.294 54.372C103.354 54.348 103.384 54.3 103.384 54.228V43.842C103.384 43.71 103.444 43.644 103.564 43.644H104.392ZM107.233 43.824C107.233 43.764 107.245 43.722 107.269 43.698C107.293 43.662 107.341 43.644 107.413 43.644H116.917C116.989 43.644 117.037 43.662 117.061 43.698C117.085 43.722 117.097 43.764 117.097 43.824V44.562C117.097 44.67 117.037 44.724 116.917 44.724H113.191C113.059 44.724 112.993 44.778 112.993 44.886V56.784C112.993 56.928 112.933 57 112.813 57H111.841C111.709 57 111.643 56.928 111.643 56.784V44.886C111.643 44.778 111.583 44.724 111.463 44.724H107.413C107.293 44.724 107.233 44.67 107.233 44.562V43.824ZM128.973 56.694C128.997 56.766 128.991 56.838 128.955 56.91C128.919 56.97 128.865 57 128.793 57H127.803C127.695 57 127.611 56.934 127.551 56.802L125.121 50.988C125.073 50.856 124.941 50.79 124.725 50.79H121.323C121.239 50.79 121.179 50.808 121.143 50.844C121.119 50.88 121.107 50.928 121.107 50.988V56.748C121.107 56.916 121.029 57 120.873 57H119.991C119.895 57 119.829 56.982 119.793 56.946C119.769 56.91 119.757 56.856 119.757 56.784V43.86C119.757 43.716 119.823 43.644 119.955 43.644H124.815C126.183 43.644 127.245 43.932 128.001 44.508C128.757 45.072 129.135 45.918 129.135 47.046C129.135 47.742 129.003 48.33 128.739 48.81C128.475 49.278 128.133 49.65 127.713 49.926C127.305 50.202 126.891 50.4 126.471 50.52C126.387 50.532 126.363 50.586 126.399 50.682L128.973 56.694ZM124.257 49.746C125.409 49.746 126.273 49.548 126.849 49.152C127.437 48.744 127.731 48.09 127.731 47.19C127.731 46.338 127.479 45.708 126.975 45.3C126.471 44.892 125.733 44.688 124.761 44.688H121.341C121.185 44.688 121.107 44.742 121.107 44.85V49.548C121.107 49.68 121.161 49.746 121.269 49.746H124.257ZM132.167 43.86C132.167 43.716 132.233 43.644 132.365 43.644H140.195C140.303 43.644 140.357 43.698 140.357 43.806L140.339 44.544C140.339 44.664 140.279 44.724 140.159 44.724H133.733C133.589 44.724 133.517 44.79 133.517 44.922V49.548C133.517 49.668 133.583 49.728 133.715 49.728H138.593C138.701 49.728 138.755 49.782 138.755 49.89V50.646C138.755 50.694 138.743 50.73 138.719 50.754C138.707 50.778 138.665 50.79 138.593 50.79H133.697C133.577 50.79 133.517 50.85 133.517 50.97V55.74C133.517 55.86 133.577 55.92 133.697 55.92H140.411C140.543 55.92 140.609 55.974 140.609 56.082V56.838C140.609 56.886 140.591 56.928 140.555 56.964C140.531 56.988 140.489 57 140.429 57H132.383C132.239 57 132.167 56.928 132.167 56.784V43.86Z" fill="#020D2B"/>
<g clip-path="url(#clip0_1187_2513)">
<path d="M33.0285 58H22.9715C19.3371 58 16.3904 55.0533 16.3904 51.4184V41.6095H6.58151C2.94671 41.6095 0 38.6632 0 35.0283V24.9717C0 21.3368 2.94671 18.3901 6.58151 18.3901H18.4931C19.3576 18.3877 20.2141 18.5568 21.0128 18.8876C21.8116 19.2183 22.5368 19.7042 23.1466 20.3171L37.6093 34.7802H44.389C45.6568 34.7803 46.8728 34.2768 47.7694 33.3803C48.666 32.4839 49.1698 31.268 49.17 30.0002C49.17 28.7323 48.6664 27.5164 47.7699 26.6199C46.8734 25.7234 45.6575 25.2198 44.3897 25.2198H39.3619C35.7274 25.2198 32.7804 22.2731 32.7804 18.6379V13.6097C32.7804 12.3419 32.2767 11.126 31.3802 10.2295C30.4837 9.33297 29.2678 8.82933 28 8.82933C26.7322 8.82933 25.5163 9.33297 24.6198 10.2295C23.7233 11.126 23.2196 12.3419 23.2196 13.6097H16.39V8.58155C16.39 4.94672 19.3367 2 22.9715 2H33.0285C36.6629 2 39.6096 4.94638 39.6096 8.5812V18.3901H49.4188C53.0533 18.3901 56 21.3365 56 24.9713V35.0283C56 38.6628 53.0533 41.6095 49.4188 41.6095H37.5066C36.642 41.6119 35.7856 41.4427 34.9868 41.1119C34.188 40.7811 33.4628 40.2951 32.853 39.6822L18.3907 25.2198H11.611C10.9832 25.2196 10.3614 25.3431 9.78125 25.5833C9.20111 25.8234 8.67396 26.1755 8.22991 26.6194C7.78587 27.0634 7.43363 27.5904 7.1933 28.1705C6.95298 28.7505 6.82929 29.3723 6.82929 30.0002C6.82938 31.2679 7.33306 32.4838 8.22954 33.3802C9.12603 34.2766 10.3419 34.7802 11.6096 34.7802H16.6385C20.2729 34.7802 23.2196 37.7266 23.2196 41.3614V46.3899C23.2196 47.6578 23.7233 48.8737 24.6198 49.7702C25.5163 50.6667 26.7322 51.1703 28 51.1703C29.2677 51.1702 30.4835 50.6666 31.3799 49.7702C32.2763 48.8738 32.7799 47.658 32.78 46.3903H39.6093V51.4188C39.6096 55.0536 36.6633 58 33.0285 58Z" fill="#0B55E5"/>
</g>
<defs>
<clipPath id="clip0_1187_2513">
<rect width="56" height="56" fill="white" transform="translate(0 2)"/>
</clipPath>
</defs>
</svg>
